<svg height="512pt" viewBox="0 0 512 512" width="512pt" xmlns="http://www.w3.org/2000/svg"><path d="m512 256c0 141.386719-114.613281 256-256 256s-256-114.613281-256-256 114.613281-256 256-256 256 114.613281 256 256zm0 0" fill="#ff432e"/><path d="m504.855469 316.230469-101.28125-101.285157-8.730469 9.515626-54.007812-54.011719-278.832032 181.664062 157.25 157.25c12.003906 1.726563 24.265625 2.636719 36.746094 2.636719 120.636719 0 221.769531-83.453125 248.855469-195.769531zm0 0" fill="#db0404"/><path d="m511.703125 243.835938-84.128906-84.132813-2.953125 5.363281-52.417969-52.417968-31.367187 31.371093 165.535156 165.539063c3.679687-17.277344 5.628906-35.1875 5.628906-53.558594 0-4.078125-.105469-8.132812-.296875-12.164062zm0 0" fill="#db0404"/><path d="m201.417969 421.011719-139.414063-68.898438v-181.664062l139.414063 68.894531zm0 0" fill="#707789"/><path d="m340.832031 352.113281-139.414062 68.898438v-181.667969l139.414062-68.894531zm0 0" fill="#555a66"/><path d="m62.003906 170.449219 139.414063 68.894531 139.414062-68.894531-139.414062-68.597657zm0 0" fill="#414952"/><path d="m340.832031 170.449219-139.414062-68.597657v137.492188zm0 0" fill="#333940"/><path d="m277.09375 223.660156h32.371094v31.367188h-32.371094zm0 0" fill="#ff432e"/><path d="m340.832031 112.648438h31.371094v31.371093h-31.371094zm0 0" fill="#555a66"/><path d="m246.316406 316.550781h31.367188v31.371094h-31.367188zm0 0" fill="#ff432e"/><path d="m372.203125 214.945312h31.371094v31.371094h-31.371094zm0 0" fill="#555a66"/><path d="m340.832031 246.316406h31.371094v31.367188h-31.371094zm0 0" fill="#555a66"/><path d="m277.09375 285.183594h31.371094v31.367187h-31.371094zm0 0" fill="#ff432e"/><g fill="#555a66"><path d="m356.519531 299.210938h31.367188v31.367187h-31.367188zm0 0"/><path d="m356.519531 362.101562h31.367188v31.371094h-31.367188zm0 0"/><path d="m387.886719 330.578125h31.371093v31.371094h-31.371093zm0 0"/></g><path d="m309.464844 191.074219h31.371094v31.367187h-31.371094zm0 0" fill="#ff432e"/><path d="m396.203125 159.703125h31.371094v31.371094h-31.371094zm0 0" fill="#555a66"/></svg>